<?xml version="1.0" encoding="UTF-8" standalone="no"?>
<!-- Created with Inkscape (http://www.inkscape.org/) -->

<svg
   version="1.1"
   id="svg1"
   width="1329.8533"
   height="397.94666"
   viewBox="0 0 1329.8533 397.94666"
   xmlns="http://www.w3.org/2000/svg"
   xmlns:svg="http://www.w3.org/2000/svg">
  <defs
     id="defs1" />
  <g
     id="g1">
    <g
       id="group-R5">
      <path
         id="path2"
         d="m 1619.69,2892.96 c -168.21,57.4 -315.56,81.42 -433.03,88.83 -205.222,13.02 -396.406,-20.43 -551.515,-92.29 -97.27,-45.2 -180.493,-105.4 -243.641,-179.03 -100.215,-117.06 -138.746,-261.11 -109.742,-416.25 30.926,-165.08 159.617,-336.69 159.617,-336.69 123.059,-161.38 259.934,-305.9 412.367,-435.41 88.399,-72.82 216.534,-166.14 308.534,-229.31 6.75,71.95 10.69,148.53 11.21,229.8 l 0.64,121.53 c -386.603,287.15 -572.626,588.29 -599.423,703.72 -15.586,66.93 0.867,119.68 42.945,168.8 43.403,50.58 106.387,92.6 185.004,122.33 237.404,89.58 617.754,66.6 1034.124,-171.24 -307.98,-74.93 -605.81,-194.61 -893.975,-365.16 55.672,-63.63 129.075,-138.41 222.535,-217.41 l 89.23,44.23 c 238.14,116.57 620.25,276.41 982.91,310.16 124.69,11.59 247.08,8.13 360.64,-17.06 -241.55,255.56 -583.97,534.39 -978.43,670.45"
         style="fill:#ed1d27;fill-opacity:1;fill-rule:nonzero;stroke:none"
         transform="matrix(0.13333333,0,0,-0.13333333,0,397.94667)" />
      <path
         id="path3"
         d="m 1444.17,1280.09 -105.62,-60.23 C 1283.31,741.539 1115.54,429.84 1028.83,348.891 978.672,301.91 924.836,289.801 861.168,301.621 795.637,313.949 727.781,347.52 662.777,400.77 466.504,561.5 296.215,902.34 293.98,1381.95 512.781,1152.67 765.469,954.531 1057.24,790.309 c 27.27,80.07 55.29,181.043 77.01,301.471 l -82.94,55.14 C 831.234,1294.77 501.781,1545.84 291.25,1843.09 218.879,1945.3 160.762,2053.01 125.727,2163.84 25.1211,1826.97 -45.0938,1390.9 34.2344,981.34 68.7031,806.98 121.602,667.23 173.813,561.949 265.16,377.672 389.773,228.75 529.547,130.43 617.273,68.7813 711.031,26.8203 806.465,9.01172 957.836,-19.3203 1101.81,19.3203 1221.75,122.02 c 127.63,109.308 211.8,306.539 211.8,306.539 78.13,187.32 135.01,378.043 170.92,574.831 18.84,112.93 35.58,270.63 44.27,381.9 -65.69,-30.22 -133.99,-65.07 -204.57,-105.2"
         style="fill:#56aae2;fill-opacity:1;fill-rule:nonzero;stroke:none"
         transform="matrix(0.13333333,0,0,-0.13333333,0,397.94667)" />
      <path
         id="path4"
         d="m 2963.72,1622.57 c -6.06,33.16 -14.24,65.56 -25.2,96.6 -51.19,145.28 -156.7,250.62 -305.48,303.03 -158.56,55.94 -371.43,30.23 -371.43,30.23 -201.28,-25.91 -394.9,-72.17 -583.26,-139.39 -112.15,-41.97 -221.09,-89.57 -321.79,-138.28 l 2.21,-121.77 c 0.34,-71.2 -1.7,-142.53 -5.49,-213.36 563.82,321.27 1043.78,343.48 1179.66,302.17 65.71,-20 103.14,-60.58 124.7,-121.65 1.94,-5.51 3,-11.64 4.73,-17.38 17.44,-59.35 21.06,-128.36 8.62,-203.92 -29.6,-180.8 -147.93,-396.68 -366.95,-593.76 -84.32,-75.899 -183.22,-149.07 -298.36,-216.25 19.4,66.051 36.29,132.781 51.41,200.051 54.71,242.909 82.25,494.599 79.33,756.829 -82.94,-16.46 -184.4,-42.73 -299.45,-84.09 l -6.4,-99.37 C 1819.6,1201.45 1795.64,986.488 1744.5,768.352 1711.49,627.621 1667.45,485.68 1607.74,355.918 1555.42,242.012 1491.17,137.941 1412.71,52.1992 c 341.98,81.2698 754.8,238.5818 1069.79,511.9418 106.76,93.398 188.11,185.73 249.91,268.968 15.61,21.211 30.43,41.891 43.58,61.743 113.84,171.248 180.47,353.498 195.78,523.718 6.36,70.62 3.57,139.08 -8.05,204"
         style="fill:#7ecc2d;fill-opacity:1;fill-rule:nonzero;stroke:none"
         transform="matrix(0.13333333,0,0,-0.13333333,0,397.94667)" />
      <path
         id="path26"
         d="m 452.19332,132.70934 h 52.02667 v 145.02267 h 28.956 V 132.70934 h 52.016 v -26.504 H 452.19332 v 26.504"
         style="fill:#2b3b5c;fill-opacity:1;fill-rule:nonzero;stroke:none;stroke-width:0.133333" />
      <path
         id="path27"
         d="m 649.61465,153.32134 c -7.60667,5.23334 -13.62,11.94 -18.03467,20.12 v -26.25466 h -27.48666 v 130.54533 h 27.48666 v -55.95067 c 0,-14.88133 3.43734,-26.74533 10.304,-35.58 6.86667,-8.83333 17.09334,-13.24933 30.67467,-13.24933 0.49467,0 0.97867,0 1.46933,0 l -0.24266,-27.728 c -8.50534,0.164 -16.56534,2.86267 -24.17067,8.09733"
         style="fill:#2b3b5c;fill-opacity:1;fill-rule:nonzero;stroke:none;stroke-width:0.133333" />
      <path
         id="path28"
         d="m 692.92798,277.73201 h 27.48667 V 147.18668 h -27.48667 v 130.54533"
         style="fill:#2b3b5c;fill-opacity:1;fill-rule:nonzero;stroke:none;stroke-width:0.133333" />
      <path
         id="path29"
         d="m 692.92798,132.70934 h 27.48667 v -26.504 h -27.48667 v 26.504"
         style="fill:#2b3b5c;fill-opacity:1;fill-rule:nonzero;stroke:none;stroke-width:0.133333" />
      <path
         id="path30"
         d="m 845.56798,243.38267 c -8.024,7.848 -17.42667,11.776 -28.22667,11.776 -10.79733,0 -19.95733,-3.968 -27.48,-11.90666 -7.53066,-7.93067 -11.292,-18.11467 -11.292,-30.54533 0,-12.43067 3.76134,-22.78267 11.292,-31.044 7.52267,-8.26267 16.764,-12.392 27.72667,-12.392 10.95733,0 20.37067,4.12933 28.21733,12.392 7.85734,8.26133 11.78134,18.64933 11.78134,31.16266 0,12.516 -4.00934,22.70133 -12.01867,30.55733 z m -24.05067,-98.15866 c -17.508,0 -31.656,8.26133 -42.452,24.78133 v -22.81866 h -27.49066 v 173.95066 h 27.49066 v -63.02933 c 13.088,14.392 27.84267,21.59333 44.28934,21.59333 16.436,0 30.83466,-6.292 43.184,-18.896 12.34799,-12.59467 18.52799,-28.96266 18.52799,-49.08 0,-20.12533 -6.22133,-36.23733 -18.64933,-48.34533 -12.432,-12.10667 -27.39866,-18.156 -44.9,-18.156"
         style="fill:#2b3b5c;fill-opacity:1;fill-rule:nonzero;stroke:none;stroke-width:0.133333" />
      <path
         id="path31"
         d="m 907.89598,277.73201 h 27.48 V 106.20534 h -27.48 v 171.52667"
         style="fill:#2b3b5c;fill-opacity:1;fill-rule:nonzero;stroke:none;stroke-width:0.133333" />
      <path
         id="path32"
         d="m 985.67998,202.88801 c 0,-10.464 4.01066,-18.76933 12.028,-24.90533 8.01332,-6.13734 17.04802,-9.2 27.11602,-9.2 10.0586,0 18.5333,2.94 25.4053,8.82933 6.8613,5.89333 10.2973,14.31867 10.2973,25.276 z m 83.67732,-41.59333 c -12.428,-10.71067 -27.5253,-16.07067 -45.2653,-16.07067 -17.7654,0 -33.17069,6.04933 -46.26002,18.156 -13.092,12.108 -19.63334,28.42667 -19.63334,48.956 0,20.532 6.41467,36.896 19.26,49.076 12.84667,12.188 28.42536,18.28933 46.74936,18.28933 22.5826,0 40.8973,-7.28133 54.9653,-21.84533 l -15.7,-17.17867 c -8.512,10.31067 -20.9453,15.46133 -37.296,15.46133 -10.3107,0 -19.4707,-2.89866 -27.48932,-8.71466 -8.01334,-5.79734 -12.35734,-13.45334 -13.008,-22.94133 h 102.33062 v -18.892 c 0,-18.816 -6.2213,-33.57867 -18.6533,-44.296"
         style="fill:#2b3b5c;fill-opacity:1;fill-rule:nonzero;stroke:none;stroke-width:0.133333" />
      <path
         id="path33"
         d="m 1305.3146,128.59868 c -16.3653,-14.98267 -39.86,-22.46133 -70.452,-22.46133 h -35.7253 v 33.38533 h 34.736 c 19.4773,0 33.924,4.55333 43.3293,13.624 9.3987,9.08666 14.1147,22.06 14.1147,38.91333 0,16.84267 -4.716,29.70667 -14.1147,38.53733 -9.4053,8.82267 -22.868,13.24 -40.3906,13.24 h -37.6747 V 139.52268 h -33.384 v 138.20933 h 67.1347 c 32.748,0 57.0813,-7.76667 73.0373,-23.32934 15.9467,-15.53866 23.932,-36.64533 23.932,-63.33866 0,-26.66933 -8.1907,-47.484 -24.5427,-62.46533"
         style="fill:#2b3b5c;fill-opacity:1;fill-rule:nonzero;stroke:none;stroke-width:0.133333" />
      <path
         id="path34"
         d="m 1186.8053,127.19468 h -21.052 v -21.05734 h 21.052 v 21.05734"
         style="fill:#2b3b5c;fill-opacity:1;fill-rule:nonzero;stroke:none;stroke-width:0.133333" />
      <path
         id="path35"
         d="m 1165.7533,106.13734 h -15.3747 V 90.756012 h 15.3747 v 15.381328"
         style="fill:#2b3b5c;fill-opacity:1;fill-rule:nonzero;stroke:none;stroke-width:0.133333" />
      <path
         id="path36"
         d="m 1186.8813,93.809345 h -8.7493 v -8.756 h 8.7493 v 8.756"
         style="fill:#2b3b5c;fill-opacity:1;fill-rule:nonzero;stroke:none;stroke-width:0.133333" />
    </g>
  </g>
</svg>
